Coordinates
version=1
nRows=4
nColumns=107
inDegrees=yes

Units are S.I. units (second, meters, Newtons, ...)
If the header above contains a line with 'inDegrees', this indicates whether rotational values are in degrees (yes) or radians (no).

endheader
time	sternoclavicular_r2	sternoclavicular_r3	unrotscap_r3	unrotscap_r2	acromioclavicular_r2	acromioclavicular_r3	acromioclavicular_r1	unrothum_r1	unrothum_r3	unrothum_r2	elv_angle	shoulder_elv	shoulder1_r2	shoulder_rot	elbow_flexion	pro_sup	deviation	flexion	proximal_distal_r1	proximal_distal_r3	cmc_flexion	cmc_abduction	mp_flexion	ip_flexion	mcp2_flexion	mcp2_abduction	pm2_flexion	md2_flexion	mcp3_flexion	mcp3_abduction	pm3_flexion	md3_flexion	mcp4_flexion	mcp4_abduction	pm4_flexion	md4_flexion	mcp5_flexion	mcp5_abduction	pm5_flexion	md5_flexion	bicpt_tx	bicpt_ty	bicpt_tz	bicpt2_tx	bicpt2_ty	bicpt2_tz	ptpt_tx	ptpt_ty	ptpt_tz	FCUpt_tx	FCUpt_ty	FCUpt_tz	EDCpt_tx	EDCpt_ty	EDCpt_tz	APLpt_tx	APLpt_ty	APLpt_tz	FPLpt_tx	FPLpt_ty	FPLpt_tz	FPLpt2_tx	FPLpt2_ty	FPLpt2_tz	PEC1pt2_tx	PEC1pt2_ty	PEC1pt2_tz	PEC1pt3_tx	PEC1pt3_ty	PEC1pt3_tz	PEC2pt2_tx	PEC2pt2_ty	PEC2pt2_tz	PEC2pt3_tx	PEC2pt3_ty	PEC2pt3_tz	PEC3pt2_tx	PEC3pt2_ty	PEC3pt2_tz	PEC3pt3_tx	PEC3pt3_ty	PEC3pt3_tz	DELT2pt2a_tx	DELT2pt2a_ty	DELT2pt2a_tz	DELT2pt2_tx	DELT2pt2_ty	DELT2pt2_tz	LAT1pt2_tx	LAT1pt2_ty	LAT1pt2_tz	LAT1pt3_tx	LAT1pt3_ty	LAT1pt3_tz	LAT2pt2_tx	LAT2pt2_ty	LAT2pt2_tz	LAT2pt3_tx	LAT2pt3_ty	LAT2pt3_tz	LAT3pt2_tx	LAT3pt2_ty	LAT3pt2_tz	LAT3pt3_tx	LAT3pt3_ty	LAT3pt3_tz
      1.20000000	     -0.32690554	      0.13846176	     -0.13846176	      0.32690554	     -0.06619172	      0.53493822	      0.24045105	     -0.24045105	     -0.53493822	      0.06619172	     98.60510809	     77.39779292	     -1.72098380	    -19.50016790	     29.78143012	     55.37335338	      0.22494293	     -0.16822053	      0.26386334	     -0.08411027	     17.22282848	    -22.53215631	    -10.72598621	     -2.05384121	     25.93434687	      4.02600176	     28.64065356	    -10.18051193	     30.59838971	     -0.45404256	     15.38181990	     16.73497204	     21.66980949	     -6.77635917	     22.40079211	     25.03270317	     12.35113562	    -12.83559272	     23.58117555	      5.29307657	      0.00088508	     -0.03101341	     -0.00484981	      0.01633278	     -0.01829027	     -0.00566321	      0.00345853	     -0.06754561	     -0.00451062	      0.00936448	     -0.18314171	     -0.00040656	     -0.00664479	      0.00204209	     -0.00002799	      0.00014841	      0.00005937	      0.00029683	      0.00018997	      0.00056991	      0.00032058	      0.00001863	     -0.00026578	     -0.00031894	      0.00253693	      0.00890075	      0.00619183	     -0.00829877	      0.02003745	     -0.01900547	      0.00253693	      0.00890075	      0.00619183	      0.00055898	      0.01857549	     -0.00976073	      0.00399425	      0.00494960	      0.01607974	      0.00000000	      0.00801321	      0.00000000	     -0.00726680	     -0.03358207	     -0.00660853	      0.01348616	     -0.00041663	     -0.00312665	     -0.00090298	      0.01513558	     -0.00619183	      0.00249393	      0.02184340	     -0.01805950	     -0.00606283	      0.01311464	     -0.00554685	     -0.01264165	      0.02769123	     -0.03100214	     -0.02373534	      0.01466259	     -0.00743879	     -0.01573756	      0.03199111	     -0.03874193
      1.23333333	     -0.32711301	      0.13854963	     -0.13854963	      0.32711301	     -0.06623373	      0.53527771	      0.24060365	     -0.24060365	     -0.53527771	      0.06623373	     98.54959684	     77.44691213	     -1.72001494	    -19.42254277	     29.99550934	     59.23386375	      0.23678532	     -0.14354665	      0.27545956	     -0.07177333	     16.64503715	    -22.06307463	    -12.22171044	     -3.26400398	     30.68136792	      5.68679806	     32.42641610	     -7.63611091	     36.62788907	      0.35939329	     18.26628615	     18.35515907	     27.38585241	     -6.91826520	     26.02699416	     26.09658151	     17.80045235	    -12.93743927	     27.28150031	      5.27442011	      0.00089216	     -0.03103794	     -0.00485376	      0.01618720	     -0.01834843	     -0.00515745	      0.00317329	     -0.06773006	     -0.00482161	      0.00977376	     -0.18304243	     -0.00038367	     -0.00710805	      0.00221974	     -0.00009190	      0.00012961	      0.00005184	      0.00025922	      0.00016590	      0.00049771	      0.00027996	      0.00002001	     -0.00026223	     -0.00031467	      0.00253854	      0.00890640	      0.00619576	     -0.00830404	      0.02005016	     -0.01901754	      0.00253854	      0.00890640	      0.00619576	      0.00055934	      0.01858727	     -0.00976692	      0.00399609	      0.00495274	      0.01608414	      0.00000000	      0.00802346	      0.00000000	     -0.00727141	     -0.03360338	     -0.00661704	      0.01344080	     -0.00041427	     -0.00310037	     -0.00090355	      0.01514519	     -0.00619576	      0.00249551	      0.02185726	     -0.01807096	     -0.00606668	      0.01312296	     -0.00555037	     -0.01264967	      0.02770881	     -0.03102182	     -0.02375041	      0.01467190	     -0.00744352	     -0.01574755	      0.03201142	     -0.03876651
      1.26666667	     -0.32670948	      0.13837872	     -0.13837872	      0.32670948	     -0.06615202	      0.53461739	      0.24030684	     -0.24030684	     -0.53461739	      0.06615202	     98.60959658	     77.35137381	     -1.72106213	    -19.95018555	     30.22588159	     63.19577490	      0.24369611	     -0.12700984	      0.28212140	     -0.06350492	     16.54095921	    -21.28727048	    -14.52196551	     -5.30762311	     35.14844941	      7.70428289	     36.10571223	     -3.32689322	     42.44858003	      1.66271721	     21.11047518	     20.78748172	     33.25978306	     -6.81178170	     28.79573273	     26.66221749	     22.92463911	    -12.93646003	     31.64760693	      5.32322872	      0.00089978	     -0.03106435	     -0.00485802	      0.01600230	     -0.01841101	     -0.00461666	      0.00288055	     -0.06791935	     -0.00514076	      0.01019859	     -0.18293615	     -0.00034849	     -0.00758348	      0.00240685	     -0.00016590	      0.00011644	      0.00004658	      0.00023288	      0.00014904	      0.00044713	      0.00025151	      0.00002025	     -0.00026152	     -0.00031383	      0.00253541	      0.00889542	      0.00618812	     -0.00829379	      0.02002543	     -0.01899408	      0.00253541	      0.00889542	      0.00618812	      0.00055865	      0.01856435	     -0.00975488	      0.00399252	      0.00494663	      0.01607558	      0.00000000	      0.00800353	      0.00000000	     -0.00726244	     -0.03356193	     -0.00660050	      0.01374751	     -0.00043041	     -0.00328089	     -0.00090243	      0.01512650	     -0.00618812	      0.00249244	      0.02183030	     -0.01804867	     -0.00605920	      0.01310677	     -0.00554352	     -0.01263407	      0.02767463	     -0.03098355	     -0.02372111	      0.01465380	     -0.00743433	     -0.01572813	      0.03197193	     -0.03871869
      1.30000000	     -0.32689605	      0.13845774	     -0.13845774	      0.32689605	     -0.06618980	      0.53492268	      0.24044406	     -0.24044406	     -0.53492268	      0.06618980	     98.47400035	     77.39554506	     -1.71869553	    -19.73968846	     30.55311626	     65.10524255	      0.24604008	     -0.11509587	      0.28436239	     -0.05754794	     14.37268756	    -19.75407600	    -14.66997828	     -5.39357924	     39.75922944	      9.02145819	     38.82070193	     -1.67712842	     46.95979134	      2.24669895	     24.53074364	     22.32696243	     37.53490328	     -7.17024417	     32.31840701	     28.02317298	     26.73603204	    -13.00565425	     34.74683244	      5.48600582	      0.00091060	     -0.03110185	     -0.00486406	      0.01590036	     -0.01849990	     -0.00434816	      0.00273946	     -0.06801058	     -0.00529458	      0.01040507	     -0.18288333	     -0.00032731	     -0.00781261	      0.00249876	     -0.00020460	      0.00010667	      0.00004267	      0.00021333	      0.00013653	      0.00040960	      0.00023040	      0.00002513	     -0.00024456	     -0.00029347	      0.00253686	      0.00890050	      0.00619165	     -0.00829853	      0.02003686	     -0.01900492	      0.00253686	      0.00890050	      0.00619165	      0.00055897	      0.01857495	     -0.00976045	      0.00399417	      0.00494945	      0.01607954	      0.00000000	      0.00801274	      0.00000000	     -0.00726659	     -0.03358110	     -0.00660815	      0.01362559	     -0.00042395	     -0.00320836	     -0.00090295	      0.01513514	     -0.00619165	      0.00249386	      0.02184276	     -0.01805898	     -0.00606266	      0.01311426	     -0.00554669	     -0.01264128	      0.02769043	     -0.03100124	     -0.02373465	      0.01466217	     -0.00743858	     -0.01573711	      0.03199019	     -0.03874080
